<svg xmlns="http://www.w3.org/2000/svg" xmlns:xlink="http://www.w3.org/1999/xlink" viewBox="0 0 178.77 145.14"><defs><style>.cls-1{fill:#3f3f3f;}.cls-2{fill:url(#New_Gradient_Swatch_1);}.cls-3{fill:url(#New_Gradient_Swatch_1-2);}.cls-4{fill:url(#New_Gradient_Swatch_1-3);}</style><linearGradient id="New_Gradient_Swatch_1" x1="24.39" y1="35.34" x2="121.08" y2="35.34" gradientUnits="userSpaceOnUse"><stop offset="0" stop-color="#27aae1"/><stop offset="1" stop-color="#069"/></linearGradient><linearGradient id="New_Gradient_Swatch_1-2" x1="124.46" y1="22.11" x2="151.57" y2="22.11" xlink:href="#New_Gradient_Swatch_1"/><linearGradient id="New_Gradient_Swatch_1-3" x1="76.6" y1="76.34" x2="109.44" y2="76.34" xlink:href="#New_Gradient_Swatch_1"/></defs><g id="图层_2" data-name="图层 2"><g id="Layer_1" data-name="Layer 1"><path class="cls-1" d="M5.05,135.35a8.92,8.92,0,0,1-3.7-3.68A12.12,12.12,0,0,1,0,125.72a13.09,13.09,0,0,1,1.35-6.14,9.45,9.45,0,0,1,3.75-3.94,11,11,0,0,1,5.54-1.36,10.83,10.83,0,0,1,5.44,1.34,9.19,9.19,0,0,1,3.66,3.87,13,13,0,0,1,1.31,6,12.41,12.41,0,0,1-1.36,6,9.13,9.13,0,0,1-3.77,3.77,11.63,11.63,0,0,1-5.51,1.28A11.42,11.42,0,0,1,5.05,135.35Zm10.14-9.63A10.05,10.05,0,0,0,14,120.41a3.88,3.88,0,0,0-3.52-1.86A3.87,3.87,0,0,0,7,120.43a10,10,0,0,0-1.15,5.21,8.37,8.37,0,0,0,1.25,4.93,4.18,4.18,0,0,0,3.63,1.74C13.7,132.31,15.19,130.11,15.19,125.72Z"/><path class="cls-1" d="M23.58,120c0-1.63,0-3.4-.16-5.3h5.45a16.47,16.47,0,0,1,.37,2.78,10.3,10.3,0,0,1,2.88-2.34,7.54,7.54,0,0,1,3.58-.86,7.65,7.65,0,0,1,4,1.08,7.73,7.73,0,0,1,2.94,3.41,13.48,13.48,0,0,1,1.12,5.87,14.64,14.64,0,0,1-1.34,6.54,9.35,9.35,0,0,1-3.7,4.07,10.64,10.64,0,0,1-5.41,1.37,13.62,13.62,0,0,1-4-.66v8.76l-5.72.42Zm12.94,10.54a9.17,9.17,0,0,0,1.4-5.54c0-2.2-.37-3.78-1.12-4.76a3.57,3.57,0,0,0-3-1.47,4.75,4.75,0,0,0-2.35.6,10.56,10.56,0,0,0-2.16,1.68v10.7a6.77,6.77,0,0,0,1.5.49,8.17,8.17,0,0,0,1.76.19A4.63,4.63,0,0,0,36.52,130.54Z"/><path class="cls-1" d="M64.5,126.39H50.64a6.53,6.53,0,0,0,1.8,4.49,6.05,6.05,0,0,0,4.22,1.39,14.15,14.15,0,0,0,3.11-.36,19.44,19.44,0,0,0,3.09-1l1.23,3.85a19.43,19.43,0,0,1-8.4,1.79q-5.34,0-8.1-2.83t-2.75-8a13.7,13.7,0,0,1,1.29-6.17,9.3,9.3,0,0,1,3.61-4,10.28,10.28,0,0,1,5.33-1.36,9.07,9.07,0,0,1,5.27,1.46,8.69,8.69,0,0,1,3.14,3.92,14.13,14.13,0,0,1,1,5.46ZM59,122.92a5.48,5.48,0,0,0-1.16-3.47A3.56,3.56,0,0,0,55,118.29a3.74,3.74,0,0,0-2.82,1.15,6.3,6.3,0,0,0-1.47,3.48Z"/><path class="cls-1" d="M67,120.14c0-2-.06-3.82-.16-5.44h5.4c.08.43.16,1,.23,1.65s.12,1.23.15,1.68a21.69,21.69,0,0,1,1.93-1.92,8.43,8.43,0,0,1,2.25-1.31,8.15,8.15,0,0,1,3-.52,6.8,6.8,0,0,1,3.59.92A5.92,5.92,0,0,1,85.78,118a10.78,10.78,0,0,1,.82,4.45v13.78H80.94V122.82a4.92,4.92,0,0,0-.78-3.06,2.77,2.77,0,0,0-2.34-1,5.14,5.14,0,0,0-2.67.72,11.66,11.66,0,0,0-2.41,2v14.73H67Z"/><path class="cls-1" d="M91.36,107.43h15.78l-.47,2.18H93.78V120.2H106v2.16H93.78V134h13.5l-.41,2.2H91.36Z"/><path class="cls-1" d="M114.17,134.56q-1.56-2-1.56-6.08V115h2.33V128.4a7.46,7.46,0,0,0,1.17,4.65,4.09,4.09,0,0,0,3.42,1.48,7.66,7.66,0,0,0,3.87-1.08,14.1,14.1,0,0,0,3.33-2.69V115h2.35v15.87c0,1.48.06,3.27.18,5.36h-2c-.09-.51-.22-1.6-.4-3.25a17,17,0,0,1-3.58,2.65,8.8,8.8,0,0,1-4.2,1A5.74,5.74,0,0,1,114.17,134.56Z"/><path class="cls-1" d="M137.37,135.39a5.3,5.3,0,0,1-1-3.52V105.72l2.37-.4V131.5a4.47,4.47,0,0,0,.44,2.3,1.79,1.79,0,0,0,1.6.67,4.84,4.84,0,0,0,1-.17l.35,1.94a5,5,0,0,1-.94.22,7.29,7.29,0,0,1-1,.08A3.58,3.58,0,0,1,137.37,135.39Z"/><path class="cls-1" d="M147.7,125.16v.44c0,2.91.66,5.14,2,6.67a7.13,7.13,0,0,0,5.73,2.3,13.43,13.43,0,0,0,6-1.41L162,135a13.27,13.27,0,0,1-3.14,1.2,15.8,15.8,0,0,1-3.93.43,10.07,10.07,0,0,1-5.25-1.29,8.17,8.17,0,0,1-3.27-3.73,14.12,14.12,0,0,1-1.11-5.86,14.63,14.63,0,0,1,1.13-6,8.67,8.67,0,0,1,3.17-3.84,8.49,8.49,0,0,1,4.72-1.32,7.43,7.43,0,0,1,4.52,1.33,7.89,7.89,0,0,1,2.71,3.47,12.25,12.25,0,0,1,.87,4.65v1.17Zm2.25-7a8.9,8.9,0,0,0-2.11,5.06H160a8.45,8.45,0,0,0-1.71-5.09,5.13,5.13,0,0,0-4.07-1.74A5.58,5.58,0,0,0,150,118.19Z"/><path class="cls-1" d="M168.25,120.36q0-1.22-.06-2.67c0-1-.07-1.6-.08-1.9l0-.84h2.12c.08.57.15,1.25.21,2s.1,1.48.13,2a21.21,21.21,0,0,1,1.84-2.42,7.1,7.1,0,0,1,1.94-1.51,5.46,5.46,0,0,1,2.54-.57,6.42,6.42,0,0,1,1.92.28l-.37,2.12a6.26,6.26,0,0,0-1.63-.22,5,5,0,0,0-2.22.5,6.58,6.58,0,0,0-1.91,1.47,23.68,23.68,0,0,0-2,2.58v14.91h-2.34Z"/><path class="cls-2" d="M90,.42A13.32,13.32,0,0,0,86.44,0a19.29,19.29,0,0,0-3.83.43,20.73,20.73,0,0,0-3.7,1.18,15.29,15.29,0,0,0-3.16,1.86,9.8,9.8,0,0,0-1.27,1.19,6.92,6.92,0,0,0-.85,1.22,4.63,4.63,0,0,0-.43,1.21,3.34,3.34,0,0,0,0,1.18h0a3.42,3.42,0,0,1,0,1.15,4.56,4.56,0,0,1-.41,1.21,6.46,6.46,0,0,1-.84,1.24,9.86,9.86,0,0,1-1.26,1.23A14.16,14.16,0,0,1,69,14.21a17,17,0,0,1-1.86.94,19.73,19.73,0,0,1-2,.73c-.7.21-1.41.39-2.13.53h0a21.56,21.56,0,0,0-2.21.54,19.31,19.31,0,0,0-2.16.79,16.94,16.94,0,0,0-2,1A16.16,16.16,0,0,0,54.74,20a13,13,0,0,0-1.57,1.44A9.73,9.73,0,0,0,52.05,23a6.48,6.48,0,0,0-.67,1.52,4.46,4.46,0,0,0-.2,1.47,5.66,5.66,0,0,1-.25,1.42,6.8,6.8,0,0,1-.67,1.47,10,10,0,0,1-1.09,1.48,13.55,13.55,0,0,1-1.54,1.46,15.41,15.41,0,0,1-1.93,1.34,16.15,16.15,0,0,1-2.15,1.11,20.31,20.31,0,0,1-2.29.86,21.72,21.72,0,0,1-2.35.57l.06,0a20.25,20.25,0,0,0-2.45.59,21.38,21.38,0,0,0-2.45.91,23.48,23.48,0,0,0-2.39,1.23A21.18,21.18,0,0,0,29.44,40a16.7,16.7,0,0,0-3.25,3.35,10,10,0,0,0-1.64,3.5,5.57,5.57,0,0,0,.16,3.25,5.2,5.2,0,0,0,2.15,2.56,7.73,7.73,0,0,0,1.89.85,11.25,11.25,0,0,0,2.24.42,16,16,0,0,0,2.49,0,19.19,19.19,0,0,0,2.63-.43l-.08.08a19,19,0,0,1,2.59-.44,15.51,15.51,0,0,1,2.45,0,11.39,11.39,0,0,1,2.24.38,8.43,8.43,0,0,1,2,.82,6.59,6.59,0,0,1,1.54,1.24,6,6,0,0,1,1,1.58A6.38,6.38,0,0,1,48.37,59a8.67,8.67,0,0,1,0,2.1l.07-.07a8.5,8.5,0,0,0,0,2.25A7.82,7.82,0,0,0,49,65.37a7.64,7.64,0,0,0,1.22,1.91,8.72,8.72,0,0,0,1.88,1.6,11.77,11.77,0,0,0,4.84,1.67,17.38,17.38,0,0,0,5.68-.24,21,21,0,0,0,5.68-2.06,19.46,19.46,0,0,0,4.84-3.64,14,14,0,0,0,3-4.48,9.48,9.48,0,0,0,.71-4.36A7.49,7.49,0,0,0,75.44,52a8.66,8.66,0,0,0-3.28-2.72,11.64,11.64,0,0,0-2.36-.86,15.42,15.42,0,0,0-2.58-.39,17.35,17.35,0,0,0-2.69.06,20,20,0,0,0-2.75.47l.07-.06a20.77,20.77,0,0,1-2.64.44A16.31,16.31,0,0,1,56.7,49a12.75,12.75,0,0,1-2.29-.35,8.94,8.94,0,0,1-2-.77,6.42,6.42,0,0,1-1.37-1,5.15,5.15,0,0,1-1-1.15,4.8,4.8,0,0,1-.57-1.32,5.27,5.27,0,0,1-.2-1.44l.12-.49c0-.16.06-.32.08-.48s0-.31,0-.47,0-.31,0-.46l.08,0a6.85,6.85,0,0,1,.27-1.72,7.84,7.84,0,0,1,.71-1.71,10.84,10.84,0,0,1,1.15-1.67,13.92,13.92,0,0,1,1.59-1.57,15.76,15.76,0,0,1,1.93-1.39A18.54,18.54,0,0,1,57.44,32a21.86,21.86,0,0,1,2.26-.85,21.33,21.33,0,0,1,2.36-.57h0l.39-.07.38-.08.39-.09.39-.1a22.29,22.29,0,0,1,2.21-.33,17,17,0,0,1,2.13,0,11.77,11.77,0,0,1,2,.23,10.26,10.26,0,0,1,1.83.55,7.51,7.51,0,0,1,1.61.91,5.74,5.74,0,0,1,1.18,1.18,5.2,5.2,0,0,1,.74,1.42,5.4,5.4,0,0,1,.28,1.62l.06-.06a5.59,5.59,0,0,0,.29,1.72,5.68,5.68,0,0,0,.83,1.6,7.33,7.33,0,0,0,1.38,1.41,9.64,9.64,0,0,0,2,1.15,13.91,13.91,0,0,0,4.67,1.12,19.55,19.55,0,0,0,10.12-2.09,14.82,14.82,0,0,0,4-2.91,9.37,9.37,0,0,0,2.18-3.5,6,6,0,0,0,.12-3.36A6,6,0,0,0,99.44,28a9.23,9.23,0,0,0-3.37-2,12.75,12.75,0,0,0-2.3-.6,16.27,16.27,0,0,0-2.44-.23,19.24,19.24,0,0,0-5,.57l.05-.05a22.6,22.6,0,0,1-2.39.42,18.43,18.43,0,0,1-2.33.11A12.69,12.69,0,0,1,79.5,26a10.72,10.72,0,0,1-2-.53,7.6,7.6,0,0,1-1.48-.76A5.32,5.32,0,0,1,75,23.79a4.49,4.49,0,0,1-.71-1.1,4.26,4.26,0,0,1-.33-1.21c0-.09,0-.19,0-.28a2.17,2.17,0,0,0,0-.26,2.45,2.45,0,0,0,0-.27,2.34,2.34,0,0,0,0-.26l0,0a4.14,4.14,0,0,1,0-1.36,4.93,4.93,0,0,1,.43-1.37,6.38,6.38,0,0,1,.85-1.34,9,9,0,0,1,1.27-1.29,13,13,0,0,1,1.62-1.15A16.7,16.7,0,0,1,79.93,13a18.62,18.62,0,0,1,2-.74,21.35,21.35,0,0,1,2.13-.52h0l.38-.08.37-.07.37-.09.37-.09c.68-.14,1.36-.25,2-.32a16.89,16.89,0,0,1,2-.1,13.12,13.12,0,0,1,1.91.13,11.37,11.37,0,0,1,1.79.39,8.67,8.67,0,0,1,1.63.67,6.36,6.36,0,0,1,1.25.9,4.68,4.68,0,0,1,.87,1.1,4.18,4.18,0,0,1,.47,1.26l.05,0A4.23,4.23,0,0,0,98,16.71a5.25,5.25,0,0,0,1,1.23A7.54,7.54,0,0,0,100.42,19a11.44,11.44,0,0,0,2,.85,15.79,15.79,0,0,0,4.47.73,20.59,20.59,0,0,0,4.75-.42A18.53,18.53,0,0,0,116,18.68a12.13,12.13,0,0,0,3.36-2.38A6.18,6.18,0,0,0,121,13.49a4,4,0,0,0-.26-2.65,5.57,5.57,0,0,0-1.92-2.2,10.49,10.49,0,0,0-3.37-1.49,16.26,16.26,0,0,0-2.23-.42,19.37,19.37,0,0,0-2.3-.11,20.09,20.09,0,0,0-2.32.16,21.32,21.32,0,0,0-2.28.42l0,0a20.54,20.54,0,0,1-2.19.4,19.94,19.94,0,0,1-2.16.15,15.76,15.76,0,0,1-2.08-.1A11.33,11.33,0,0,1,98,7.23a8.11,8.11,0,0,1-1.49-.56A5.71,5.71,0,0,1,95.36,6a4.32,4.32,0,0,1-.81-.86,3.56,3.56,0,0,1-.47-1,3.16,3.16,0,0,0-.33-1.2,3.67,3.67,0,0,0-.8-1A5.7,5.7,0,0,0,91.7,1,8.05,8.05,0,0,0,90,.42"/><path class="cls-3" d="M143.68,14.62a20.68,20.68,0,0,0-5-.67,22.48,22.48,0,0,0-4.89.45,17.87,17.87,0,0,0-4.32,1.48,11.31,11.31,0,0,0-3.3,2.41,6.24,6.24,0,0,0-1.61,3,5,5,0,0,0,.36,3.07,7.54,7.54,0,0,0,2.29,2.81,13.7,13.7,0,0,0,4.17,2.14,20.43,20.43,0,0,0,5.36.94,21.79,21.79,0,0,0,5.44-.42A17.69,17.69,0,0,0,147,28.15a10.36,10.36,0,0,0,3.37-2.76,5.68,5.68,0,0,0,1.25-3.28,5.32,5.32,0,0,0-.92-3.1,8.88,8.88,0,0,0-2.73-2.6,15.42,15.42,0,0,0-4.24-1.79"/><path class="cls-4" d="M102.31,64.06a16.68,16.68,0,0,0-5.64-1.62,19.44,19.44,0,0,0-5.89.3,19.74,19.74,0,0,0-5.59,2,18.32,18.32,0,0,0-4.76,3.71,14.91,14.91,0,0,0-3,4.89,12.53,12.53,0,0,0-.77,5.27,11.59,11.59,0,0,0,1.62,5.06,12.93,12.93,0,0,0,4.14,4.16,15.79,15.79,0,0,0,6.06,2.24A19.18,19.18,0,0,0,95.16,90a19.82,19.82,0,0,0,6.36-2.43,17.59,17.59,0,0,0,5-4.45,14.18,14.18,0,0,0,2.61-5.53,11.89,11.89,0,0,0-.06-5.41,11.56,11.56,0,0,0-2.38-4.66,13.36,13.36,0,0,0-4.41-3.41"/></g></g></svg>